# xmcd
#
# Track frame offsets: 
#        150
#        26247
#        51247
#        86482
#        123110
#        150337
#        208362
#        231897
#        265597
#
# Disc length: 3605 seconds
#
# Revision: 0
# Processed by: cddbd v1.5.2PL0 Copyright (c) Steve Scherf et al.
# Submitted via: ExactAudioCopy v0.99pb5
#
DISCID=710e1309
DTITLE=Eric Clapton  - Eric Clapton's Rainbow Concert - Disc 4 (MVR 23
DTITLE=7)
DYEAR=1900
DGENRE=
TTITLE0=Bottle Of Red Wine
TTITLE1=Presence Of The Lord
TTITLE2=Tell The Truth
TTITLE3=Pearly Queen
TTITLE4=Key To The Highway
TTITLE5=Let it Rain
TTITLE6=Crossroads
TTITLE7=Layla
TTITLE8=Radio Spot-Rainbow Concert
EXTD=
EXTT0=
EXTT1=
EXTT2=
EXTT3=
EXTT4=
EXTT5=
EXTT6=
EXTT7=
EXTT8=
PLAYORDER=
